<?xml version="1.0" encoding="utf-8"?>
<!-- Generator: Adobe Illustrator 15.1.0, SVG Export Plug-In  -->
<!DOCTYPE svg PUBLIC "-//W3C//DTD SVG 1.1//EN" "http://www.w3.org/Graphics/SVG/1.1/DTD/svg11.dtd" [
	<!ENTITY ns_flows "http://ns.adobe.com/Flows/1.0/">
]>
<svg version="1.1"
	 xmlns="http://www.w3.org/2000/svg" xmlns:xlink="http://www.w3.org/1999/xlink" xmlns:a="http://ns.adobe.com/AdobeSVGViewerExtensions/3.0/"
	 x="0px" y="0px" width="156px" height="117px" viewBox="0 0 156 117" overflow="visible" enable-background="new 0 0 156 117"
	 xml:space="preserve">
<defs>
</defs>
<path stroke="#000000" stroke-linecap="round" stroke-linejoin="round" stroke-miterlimit="10" d="M27.445,34H43.45
	c3.486,0,6.097,0.828,7.832,2.486c1.736,1.658,2.604,4.018,2.604,7.078c0,3.146-0.946,5.605-2.837,7.375
	c-1.892,1.773-4.779,2.658-8.662,2.658h-5.271v11.562h-9.671V34z M37.116,47.286h2.359c1.856,0,3.159-0.322,3.911-0.967
	c0.751-0.646,1.126-1.471,1.126-2.477c0-0.979-0.326-1.807-0.978-2.488c-0.652-0.68-1.878-1.02-3.677-1.02h-2.742V47.286z"/>
<path stroke="#000000" stroke-linecap="round" stroke-linejoin="round" stroke-miterlimit="10" d="M49.401,49.602
	c0-5.088,1.417-9.047,4.251-11.881c2.834-2.834,6.78-4.252,11.839-4.252c5.186,0,9.182,1.393,11.988,4.176
	c2.805,2.785,4.208,6.686,4.208,11.701c0,3.643-0.613,6.629-1.839,8.959c-1.226,2.332-2.997,4.145-5.313,5.441
	c-2.317,1.297-5.205,1.945-8.662,1.945c-3.515,0-6.422-0.561-8.725-1.68s-4.169-2.891-5.601-5.312
	C50.116,56.276,49.401,53.245,49.401,49.602z M59.029,49.645c0,3.145,0.584,5.406,1.754,6.779c1.169,1.375,2.759,2.062,4.771,2.062
	c2.069,0,3.67-0.674,4.804-2.02s1.7-3.762,1.7-7.248c0-2.934-0.592-5.076-1.774-6.43c-1.184-1.354-2.788-2.029-4.814-2.029
	c-1.942,0-3.5,0.688-4.676,2.061C59.617,44.196,59.029,46.471,59.029,49.645z"/>
<path stroke="#000000" stroke-linecap="round" stroke-linejoin="round" stroke-miterlimit="10" d="M80.388,34h9.628v23.486h15.027
	l-3.023,7.674H80.388V34z"/>
<path stroke="#000000" stroke-linecap="round" stroke-linejoin="round" stroke-miterlimit="10" d="M97.991,34h10.695l6.278,10.512
	L121.254,34h10.638L119.777,52.11v13.051h-9.649V52.11L97.991,34z"/>
<path stroke="#000000" stroke-linecap="round" stroke-linejoin="round" stroke-miterlimit="10" d="M27.112,69.874H56.38v7.695h-9.82
	v23.465h-9.629V77.569h-6.797L27.112,69.874z"/>
<path stroke="#000000" stroke-linecap="round" stroke-linejoin="round" stroke-miterlimit="10" d="M49.401,85.475
	c0-5.088,1.417-9.047,4.251-11.881c2.834-2.834,6.78-4.252,11.839-4.252c5.186,0,9.182,1.393,11.988,4.178
	c2.805,2.783,4.208,6.684,4.208,11.699c0,3.643-0.613,6.629-1.839,8.959c-1.226,2.332-2.997,4.146-5.313,5.441
	c-2.317,1.297-5.205,1.945-8.662,1.945c-3.515,0-6.422-0.559-8.725-1.68c-2.303-1.119-4.169-2.891-5.601-5.312
	C50.116,92.149,49.401,89.118,49.401,85.475z M59.029,85.518c0,3.145,0.584,5.406,1.754,6.779c1.169,1.375,2.759,2.062,4.771,2.062
	c2.069,0,3.67-0.674,4.804-2.02s1.7-3.762,1.7-7.248c0-2.934-0.592-5.076-1.774-6.43c-1.184-1.352-2.788-2.029-4.814-2.029
	c-1.942,0-3.5,0.688-4.676,2.062C59.617,80.069,59.029,82.344,59.029,85.518z"/>
<path stroke="#000000" stroke-linecap="round" stroke-linejoin="round" stroke-miterlimit="10" d="M80.346,69.874h16.005
	c3.486,0,6.097,0.83,7.833,2.488c1.736,1.656,2.604,4.016,2.604,7.076c0,3.146-0.946,5.605-2.837,7.377
	c-1.892,1.771-4.779,2.656-8.662,2.656h-5.271v11.562h-9.671V69.874z M90.017,83.159h2.359c1.856,0,3.16-0.322,3.911-0.967
	c0.751-0.645,1.126-1.471,1.126-2.477c0-0.979-0.326-1.807-0.978-2.486c-0.652-0.682-1.878-1.021-3.677-1.021h-2.742V83.159z"/>
<path stroke="#000000" stroke-linecap="round" stroke-linejoin="round" stroke-miterlimit="10" d="M104.743,69.874h25.804
	l-3.023,6.654h-13.131v4.951h10.752v6.355h-10.752v6.143h13.598l3.023,7.057h-26.271V69.874z"/>
<path d="M145.658,116.866H25.773L0,61.583L23.253,0l133.021,18.297L145.658,116.866z M30.87,108.866h107.603l9.014-83.701
	L28.483,8.795L8.675,61.256L30.87,108.866z"/>
</svg>
