<?xml version="1.0" encoding="utf-8"?>
<!-- Generator: Adobe Illustrator 15.1.0, SVG Export Plug-In  -->
<!DOCTYPE svg PUBLIC "-//W3C//DTD SVG 1.1//EN" "http://www.w3.org/Graphics/SVG/1.1/DTD/svg11.dtd" [
	<!ENTITY ns_flows "http://ns.adobe.com/Flows/1.0/">
]>
<svg version="1.1"
	 xmlns="http://www.w3.org/2000/svg" xmlns:xlink="http://www.w3.org/1999/xlink" xmlns:a="http://ns.adobe.com/AdobeSVGViewerExtensions/3.0/"
	 x="0px" y="0px" width="157px" height="117px" viewBox="0 0.001 157 117"
	 overflow="visible" enable-background="new 0 0.001 157 117" xml:space="preserve">
<defs>
</defs>
<path fill="#D2232A" d="M27.513,34.085h16.045c3.495,0,6.112,0.832,7.852,2.493c1.74,1.662,2.61,4.027,2.61,7.097
	c0,3.152-0.948,5.617-2.844,7.393c-1.896,1.776-4.791,2.664-8.683,2.664h-5.285v11.592h-9.695V34.085z M37.208,47.403h2.365
	c1.861,0,3.167-0.324,3.92-0.971c0.753-0.646,1.129-1.473,1.129-2.481c0-0.98-0.327-1.812-0.98-2.493s-1.882-1.022-3.687-1.022
	h-2.749V47.403z"/>
<path fill="#D2232A" d="M49.524,49.726c0-5.1,1.42-9.07,4.262-11.912c2.841-2.84,6.797-4.261,11.869-4.261
	c5.199,0,9.205,1.396,12.018,4.187c2.812,2.791,4.218,6.701,4.218,11.73c0,3.65-0.614,6.645-1.842,8.981
	c-1.229,2.337-3.005,4.155-5.328,5.454c-2.322,1.301-5.217,1.95-8.683,1.95c-3.523,0-6.438-0.562-8.747-1.684
	c-2.308-1.121-4.18-2.897-5.615-5.327C50.242,56.417,49.524,53.376,49.524,49.726z M59.177,49.769c0,3.152,0.586,5.42,1.758,6.797
	c1.171,1.378,2.766,2.066,4.784,2.066c2.074,0,3.679-0.674,4.815-2.023c1.137-1.351,1.705-3.771,1.705-7.267
	c0-2.94-0.594-5.089-1.78-6.446c-1.186-1.355-2.794-2.035-4.826-2.035c-1.947,0-3.509,0.69-4.688,2.068
	C59.766,44.306,59.177,46.587,59.177,49.769z"/>
<path fill="#D2232A" d="M80.59,34.085h9.652v23.546h15.065l-3.031,7.692H80.59V34.085z"/>
<path fill="#D2232A" d="M98.235,34.085h10.722l6.293,10.538l6.308-10.538h10.664l-12.146,18.154v13.084h-9.673V52.239L98.235,34.085
	z"/>
<path fill="#D2232A" d="M27.179,70.048h29.341v7.714h-9.845v23.524h-9.652V77.762H30.21L27.179,70.048z"/>
<path fill="#D2232A" d="M49.524,85.688c0-5.1,1.42-9.07,4.262-11.911c2.841-2.842,6.797-4.262,11.869-4.262
	c5.199,0,9.205,1.396,12.018,4.187c2.812,2.792,4.218,6.701,4.218,11.73c0,3.651-0.614,6.645-1.842,8.98
	c-1.229,2.338-3.005,4.156-5.328,5.456c-2.322,1.3-5.217,1.949-8.683,1.949c-3.523,0-6.438-0.562-8.747-1.683
	c-2.308-1.123-4.18-2.898-5.615-5.328C50.242,92.379,49.524,89.339,49.524,85.688z M59.177,85.73c0,3.154,0.586,5.42,1.758,6.798
	c1.171,1.379,2.766,2.066,4.784,2.066c2.074,0,3.679-0.674,4.815-2.023s1.705-3.771,1.705-7.266c0-2.941-0.594-5.09-1.78-6.446
	s-2.794-2.035-4.826-2.035c-1.947,0-3.509,0.688-4.688,2.066C59.766,80.269,59.177,82.549,59.177,85.73z"/>
<path fill="#D2232A" d="M80.546,70.048h16.045c3.495,0,6.112,0.832,7.852,2.493c1.74,1.663,2.611,4.028,2.611,7.096
	c0,3.153-0.948,5.618-2.845,7.394c-1.896,1.777-4.791,2.664-8.683,2.664h-5.285v11.592h-9.695V70.048z M90.242,83.366h2.365
	c1.861,0,3.168-0.323,3.92-0.97c0.753-0.646,1.13-1.474,1.13-2.483c0-0.979-0.327-1.811-0.98-2.492s-1.882-1.023-3.687-1.023h-2.749
	V83.366z"/>
<path fill="#D2232A" d="M105.004,70.048h25.868l-3.03,6.67h-13.164v4.965h10.78v6.371h-10.78v6.158h13.633l3.03,7.074h-26.336
	V70.048z"/>
<path fill="#D2232A" d="M146.022,117.157H25.838L0,61.735L23.311,0l133.352,18.342L146.022,117.157z M30.947,109.138h107.872
	l9.037-83.911L28.555,8.816L8.696,61.408L30.947,109.138z"/>
</svg>
