<?xml version="1.0" encoding="utf-8"?>
<!-- Generator: Adobe Illustrator 15.1.0, SVG Export Plug-In  -->
<!DOCTYPE svg PUBLIC "-//W3C//DTD SVG 1.1//EN" "http://www.w3.org/Graphics/SVG/1.1/DTD/svg11.dtd" [
	<!ENTITY ns_flows "http://ns.adobe.com/Flows/1.0/">
]>
<svg version="1.1"
	 xmlns="http://www.w3.org/2000/svg" xmlns:xlink="http://www.w3.org/1999/xlink" xmlns:a="http://ns.adobe.com/AdobeSVGViewerExtensions/3.0/"
	 x="0px" y="0px" width="156px" height="117px" viewBox="0 -0.001 156 117"
	 overflow="visible" enable-background="new 0 -0.001 156 117" xml:space="preserve">
<defs>
</defs>
<path fill="#FFFFFF" d="M27.445,33.998H43.45c3.486,0,6.097,0.83,7.832,2.488c1.736,1.658,2.604,4.018,2.604,7.078
	c0,3.145-0.946,5.604-2.837,7.375c-1.892,1.772-4.779,2.657-8.662,2.657h-5.271V65.16h-9.671V33.998z M37.116,47.283h2.359
	c1.856,0,3.159-0.322,3.911-0.967c0.751-0.645,1.126-1.471,1.126-2.477c0-0.977-0.326-1.807-0.978-2.486
	c-0.652-0.68-1.878-1.02-3.677-1.02h-2.742V47.283z"/>
<path fill="#FFFFFF" d="M49.401,49.6c0-5.086,1.417-9.047,4.251-11.881c2.834-2.834,6.78-4.252,11.839-4.252
	c5.186,0,9.182,1.393,11.988,4.178c2.805,2.785,4.208,6.684,4.208,11.702c0,3.641-0.613,6.628-1.839,8.96
	c-1.226,2.33-2.997,4.145-5.313,5.441c-2.317,1.295-5.205,1.943-8.662,1.943c-3.515,0-6.422-0.559-8.725-1.678
	s-4.169-2.891-5.601-5.314C50.116,56.275,49.401,53.243,49.401,49.6z M59.029,49.643c0,3.147,0.584,5.407,1.754,6.782
	c1.169,1.373,2.759,2.061,4.771,2.061c2.069,0,3.67-0.672,4.804-2.02c1.134-1.346,1.7-3.762,1.7-7.25
	c0-2.932-0.592-5.076-1.774-6.43c-1.184-1.352-2.788-2.029-4.814-2.029c-1.942,0-3.5,0.688-4.676,2.062
	C59.617,44.193,59.029,46.469,59.029,49.643z"/>
<path fill="#FFFFFF" d="M80.388,33.998h9.628v23.49h15.027l-3.023,7.672H80.388V33.998z"/>
<path fill="#FFFFFF" d="M97.991,33.998h10.695l6.278,10.514l6.291-10.514h10.638l-12.116,18.11V65.16h-9.649V52.108L97.991,33.998z"
	/>
<path fill="#FFFFFF" d="M27.112,69.875H56.38v7.693h-9.82v23.465h-9.629V77.567h-6.797L27.112,69.875z"/>
<path fill="#FFFFFF" d="M49.401,85.474c0-5.086,1.417-9.047,4.251-11.881c2.834-2.834,6.78-4.25,11.839-4.25
	c5.186,0,9.182,1.391,11.988,4.176c2.805,2.785,4.208,6.686,4.208,11.701c0,3.643-0.613,6.629-1.839,8.959s-2.997,4.145-5.313,5.441
	c-2.317,1.297-5.205,1.945-8.662,1.945c-3.515,0-6.422-0.561-8.725-1.68s-4.169-2.891-5.601-5.314
	C50.116,92.15,49.401,89.117,49.401,85.474z M59.029,85.517c0,3.146,0.584,5.406,1.754,6.781c1.169,1.375,2.759,2.061,4.771,2.061
	c2.069,0,3.67-0.672,4.804-2.018c1.134-1.348,1.7-3.764,1.7-7.248c0-2.934-0.592-5.078-1.774-6.43
	c-1.184-1.354-2.788-2.032-4.814-2.032c-1.942,0-3.5,0.688-4.676,2.063C59.617,80.07,59.029,82.343,59.029,85.517z"/>
<path fill="#FFFFFF" d="M80.346,69.875h16.005c3.486,0,6.097,0.828,7.833,2.486c1.736,1.658,2.604,4.017,2.604,7.078
	c0,3.145-0.946,5.604-2.837,7.375c-1.892,1.771-4.779,2.656-8.662,2.656h-5.271v11.562h-9.671V69.875z M90.017,83.158h2.359
	c1.856,0,3.16-0.322,3.911-0.967c0.751-0.645,1.126-1.469,1.126-2.477c0-0.977-0.326-1.807-0.978-2.487
	c-0.652-0.68-1.878-1.02-3.677-1.02h-2.742V83.158z"/>
<path fill="#FFFFFF" d="M104.743,69.875h25.804l-3.023,6.652h-13.131v4.954h10.752v6.354h-10.752v6.145h13.598l3.023,7.055h-26.271
	V69.875z"/>
<path fill="#FFFFFF" d="M145.658,116.867H25.773L0,61.582L23.253,0l133.021,18.295L145.658,116.867z M30.87,108.867h107.604
	l9.013-83.705L28.483,8.795L8.675,61.255L30.87,108.867z"/>
</svg>
